<svg width="186" height="60" viewBox="0 0 186 60" fill="none" xmlns="http://www.w3.org/2000/svg">
<g filter="url(#filter0_d_8979_33950)">
<rect x="4" y="4.5" width="178" height="51" rx="25.5" fill="#F5F7F9" shape-rendering="crispEdges"/>
<path d="M44.1417 27.5103C44.2685 28.3212 44.3332 29.1544 44.3332 30C44.3332 38.9289 37.0955 46.1666 28.1666 46.1666C19.2377 46.1666 12 38.9289 12 30C12 21.0711 19.2377 13.8334 28.1666 13.8334C30.8577 13.8334 33.3946 14.49 35.6281 15.654" stroke="#CCCCCC" stroke-width="2" stroke-miterlimit="10" stroke-linecap="round" stroke-linejoin="round"/>
<path d="M48.0003 18.8936L46.5758 16.1079C34.2894 19.59 28.0571 27.2507 28.0571 27.2507L22.359 23.0722L19.51 25.8579L28.0571 37.0008C34.6455 24.9874 48.0003 18.8936 48.0003 18.8936Z" fill="#FF5754"/>
<path d="M102.69 18.384V16.1703L100.62 13.0535H101.691L103.161 15.3392L104.616 13.0535H105.686L103.625 16.1703V18.384H102.69Z" fill="#8A8D96"/>
<path d="M95.668 18.384V13.0535H98.2893C99.2643 13.0535 99.8077 13.6609 99.8077 14.4121C99.8077 15.0834 99.3762 15.531 98.8807 15.6349C99.4481 15.7228 99.9116 16.2902 99.9116 16.9455C99.9116 17.7687 99.3602 18.384 98.3612 18.384H95.668ZM96.603 15.2593H98.0975C98.577 15.2593 98.8487 14.9716 98.8487 14.572C98.8487 14.1724 98.577 13.8767 98.0975 13.8767H96.603V15.2593ZM96.603 17.5609H98.1374C98.6489 17.5609 98.9526 17.2812 98.9526 16.8177C98.9526 16.4181 98.6729 16.0824 98.1374 16.0824H96.603V17.5609Z" fill="#8A8D96"/>
<path d="M86.7998 18.384V13.0535H88.7818C90.4441 13.0535 91.5709 14.1564 91.5709 15.7228C91.5709 17.2892 90.4441 18.384 88.7818 18.384H86.7998ZM87.7348 17.5609H88.7818C89.9406 17.5609 90.6119 16.7297 90.6119 15.7228C90.6119 14.6918 89.9725 13.8767 88.7818 13.8767H87.7348V17.5609Z" fill="#8A8D96"/>
<path d="M81.6165 18.384V13.0535H85.2687V13.8767H82.5515V15.2593H85.2128V16.0824H82.5515V17.5609H85.2687V18.384H81.6165Z" fill="#8A8D96"/>
<path d="M78.9775 18.384V13.0535H79.9126V18.384H78.9775Z" fill="#8A8D96"/>
<path d="M73.9189 18.384V13.0535H77.5712V13.8767H74.854V15.2593H77.5153V16.0824H74.854V18.384H73.9189Z" fill="#8A8D96"/>
<path d="M71.28 18.384V13.0535H72.2151V18.384H71.28Z" fill="#8A8D96"/>
<path d="M68.7358 18.384L67.553 16.3941H66.626V18.384H65.6909V13.0535H68.0325C69.0874 13.0535 69.7747 13.7408 69.7747 14.7238C69.7747 15.6748 69.1514 16.1863 68.512 16.2902L69.8147 18.384H68.7358ZM68.8157 14.7238C68.8157 14.2123 68.4321 13.8767 67.9046 13.8767H66.626V15.5709H67.9046C68.4321 15.5709 68.8157 15.2353 68.8157 14.7238Z" fill="#8A8D96"/>
<path d="M60.5076 18.384V13.0535H64.1598V13.8767H61.4426V15.2593H64.1039V16.0824H61.4426V17.5609H64.1598V18.384H60.5076Z" fill="#8A8D96"/>
<path d="M56.0939 18.3841L54 13.0535H55.0629L56.6773 17.3691L58.2916 13.0535H59.3545L57.2607 18.3841H56.0939Z" fill="#8A8D96"/>
<path fill-rule="evenodd" clip-rule="evenodd" d="M91.5168 28.4461C91.5168 27.1607 90.5056 26.1149 89.2628 26.1149H87.5101V22.1399H85.0056V42.6466H87.5101V39.6395C87.5122 39.6482 87.515 39.6539 87.5164 39.6617V29.3945C87.5164 28.543 87.8178 28.4773 88.2889 28.4773C88.7599 28.4773 89.0621 28.543 89.0621 29.3945V42.6466H91.5168V28.4461Z" fill="white"/>
<path fill-rule="evenodd" clip-rule="evenodd" d="M107.911 39.674C107.911 40.5257 107.626 40.5914 107.182 40.5914C106.739 40.5914 106.454 40.5257 106.454 39.674V29.736C106.454 28.8845 106.739 28.819 107.182 28.819C107.626 28.819 107.911 28.8845 107.911 29.736V39.674ZM107.175 26.109C105.379 26.109 103.919 27.6194 103.919 29.476V39.6107C103.919 41.4673 105.379 42.9774 107.175 42.9774C108.97 42.9774 110.43 41.4673 110.43 39.6107V29.476C110.43 27.6194 108.97 26.109 107.175 26.109Z" fill="white"/>
<path fill-rule="evenodd" clip-rule="evenodd" d="M164.75 26.109H162.523V39.613C162.523 39.7615 162.513 39.8841 162.495 39.9888V40.0885H162.474C162.373 40.4927 162.111 40.5328 161.749 40.5328C161.389 40.5328 161.127 40.4927 161.025 40.0885H160.994V39.9142C160.982 39.8263 160.977 39.7274 160.977 39.613V26.109H158.489V40.3485C158.489 41.637 159.499 42.6856 160.742 42.6856H162.495V46.6157H165V26.109H164.75Z" fill="white"/>
<path fill-rule="evenodd" clip-rule="evenodd" d="M147.11 39.4696C147.11 40.0802 146.963 40.2862 146.716 40.3541C146.598 40.4174 146.449 40.4285 146.275 40.4285C145.832 40.4285 145.547 40.3628 145.547 39.5112V29.5737C145.547 28.9633 145.694 28.7576 145.94 28.6897C146.058 28.6259 146.207 28.6153 146.381 28.6153C146.825 28.6153 147.11 28.6807 147.11 29.5322V39.4696ZM149.247 22.1399H146.992V26.1149H145.239C143.996 26.1149 142.986 27.1607 142.986 28.4461V40.3158C142.986 41.6009 143.996 42.6466 145.239 42.6466H149.497V22.1399H149.247Z" fill="white"/>
<path fill-rule="evenodd" clip-rule="evenodd" d="M139.267 39.674C139.267 40.5257 138.965 40.5914 138.494 40.5914C138.024 40.5914 137.721 40.5257 137.721 39.674V29.736C137.721 28.8845 138.023 28.819 138.494 28.819C138.965 28.819 139.267 28.8845 139.267 29.736V39.674ZM138.491 26.109C136.696 26.109 135.235 27.6194 135.235 29.476V39.6107C135.235 41.4673 136.696 42.9774 138.491 42.9774C140.286 42.9774 141.746 41.4673 141.746 39.6107V29.476C141.746 27.6194 140.286 26.109 138.491 26.109Z" fill="white"/>
<path fill-rule="evenodd" clip-rule="evenodd" d="M102.319 22.5126C101.889 22.0916 101.352 21.8531 100.769 21.8229L100.508 21.8091V42.6466H102.989V24.1701C102.989 23.532 102.745 22.9277 102.319 22.5126Z" fill="white"/>
<path fill-rule="evenodd" clip-rule="evenodd" d="M135.914 22.1399H129.654V24.7299H131.657V42.6466H134.162V24.7299H136.165V22.1399H135.914Z" fill="white"/>
<path fill-rule="evenodd" clip-rule="evenodd" d="M96.7486 39.674C96.7486 40.5257 96.4636 40.5914 96.0203 40.5914C95.5761 40.5914 95.292 40.5257 95.292 39.674V29.736C95.292 28.8845 95.5761 28.819 96.0203 28.819C96.4636 28.819 96.7486 28.8845 96.7486 29.736V39.674ZM96.0127 26.109C94.2179 26.109 92.7571 27.6194 92.7571 29.476V39.6107C92.7571 41.4673 94.2179 42.9774 96.0127 42.9774C97.8074 42.9774 99.2682 41.4673 99.2682 39.6107V29.476C99.2682 27.6194 97.8074 26.109 96.0127 26.109Z" fill="white"/>
<path fill-rule="evenodd" clip-rule="evenodd" d="M68.2329 30.8276V29.3608C68.2329 27.4993 66.736 25.9848 64.8958 25.9848C63.055 25.9848 61.5581 27.4993 61.5581 29.3608V33.4031C61.5581 34.6916 62.5948 35.7398 63.869 35.7398H65.6659V37.2023C65.6687 37.2582 65.6715 37.317 65.6715 37.3819V39.8604C65.6715 40.7146 65.3674 40.7805 64.8945 40.7805C64.4215 40.7805 64.118 40.7146 64.118 39.8604V38.0558H61.5581V39.5225C61.5581 41.384 63.055 42.8982 64.8958 42.8982C66.736 42.8982 68.2329 41.384 68.2329 39.5225V35.4798C68.2329 34.1914 67.1968 33.1432 65.9226 33.1432H64.1257V29.6861H64.1371V29.6492C64.1371 28.7957 64.4349 28.7296 64.8988 28.7296C65.3624 28.7296 65.6603 28.7957 65.6603 29.6492V29.6861H65.6659V30.8276H68.2329Z" fill="#477BE4"/>
<path fill-rule="evenodd" clip-rule="evenodd" d="M58.1078 30.4482H58.1008V30.4578C58.1008 31.3116 57.803 31.3777 57.3392 31.3777C56.8754 31.3777 56.5776 31.3116 56.5776 30.4578V30.4482H56.5683V25.7001H56.5776V25.6399C56.5776 24.786 56.8748 24.7203 57.3392 24.7203C57.803 24.7203 58.1008 24.786 58.1008 25.6399V25.7001H58.1078V30.4482ZM58.3645 22.1675H54V42.73H56.5683V33.7471H58.3645C59.6387 33.7471 60.6756 32.6988 60.6756 31.41V24.5045C60.6756 23.2159 59.6387 22.1675 58.3645 22.1675Z" fill="#477BE4"/>
<path fill-rule="evenodd" clip-rule="evenodd" d="M115.677 39.0833H115.666V39.6465C115.666 40.5002 115.364 40.5658 114.893 40.5658C114.421 40.5658 114.12 40.5002 114.12 39.6465V29.6846C114.12 28.8311 114.421 28.7654 114.893 28.7654C115.364 28.7654 115.666 28.8311 115.666 29.6846V30.277H115.677V39.0833ZM114.926 26.109C113.131 26.109 111.67 27.6229 111.67 29.4839V40.5126C111.67 41.8008 112.681 42.8491 113.924 42.8491H115.677V44.3498H112.103V46.9465H115.928C117.171 46.9465 118.182 45.8982 118.182 44.6097V29.4839C118.182 27.6229 116.721 26.109 114.926 26.109Z" fill="white"/>
<path fill-rule="evenodd" clip-rule="evenodd" d="M80.5071 40.493C80.0416 40.493 79.7426 40.4273 79.7426 39.5756V29.638C79.7426 28.7864 80.0416 28.7206 80.5071 28.7206C80.9732 28.7206 81.2721 28.7864 81.2721 29.638V30.9389H83.7651V29.476C83.7651 27.6194 82.3049 26.109 80.5092 26.109C78.7141 26.109 77.2539 27.6194 77.2539 29.476V39.6107C77.2539 41.4673 78.7141 42.9774 80.5092 42.9774C82.3049 42.9774 83.7651 41.4673 83.7651 39.6107V38.1479H81.2721V39.5756C81.2721 40.4273 80.9732 40.493 80.5071 40.493Z" fill="white"/>
<path fill-rule="evenodd" clip-rule="evenodd" d="M154.81 39.4303C154.81 39.6593 154.787 39.83 154.744 39.9593V40.0557H154.704C154.574 40.3178 154.328 40.3483 154.006 40.3483C153.685 40.3483 153.439 40.3178 153.309 40.0557H153.242V39.8564C153.217 39.7423 153.204 39.603 153.204 39.4303V33.4573C153.204 33.2844 153.217 33.1453 153.242 33.0312V32.9288H153.269C153.384 32.5761 153.648 32.5396 154.006 32.5396C154.495 32.5396 154.81 32.6051 154.81 33.4573V39.4303ZM154.995 26.109H151.17V28.7H154.744V30.3378H152.991C151.748 30.3378 150.737 31.384 150.737 32.6695V40.315C150.737 41.6005 151.748 42.6467 152.991 42.6467H157.248V28.441C157.248 27.1551 156.237 26.109 154.995 26.109Z" fill="white"/>
<path fill-rule="evenodd" clip-rule="evenodd" d="M75.4528 26.109H73.2263V39.613C73.2263 39.7615 73.2166 39.8841 73.1993 39.9888V40.0885H73.1785C73.0763 40.4927 72.8148 40.5328 72.4531 40.5328C72.092 40.5328 71.8305 40.4927 71.7289 40.0885H71.6971V39.9142C71.6867 39.8263 71.6805 39.7274 71.6805 39.613V26.109H69.1926V40.3485C69.1926 41.637 70.2037 42.6856 71.4467 42.6856H73.1993V46.6157H75.7038V26.109H75.4528Z" fill="white"/>
<path fill-rule="evenodd" clip-rule="evenodd" d="M125.683 26.109H123.456V39.613C123.456 39.7615 123.446 39.8841 123.428 39.9888V40.0885H123.408C123.305 40.4927 123.044 40.5328 122.682 40.5328C122.322 40.5328 122.06 40.4927 121.958 40.0885H121.926V39.9142C121.916 39.8263 121.91 39.7274 121.91 39.613V26.109H119.422V40.3485C119.422 41.637 120.433 42.6856 121.676 42.6856H123.428V46.6157H125.933V26.109H125.683Z" fill="white"/>
<path fill-rule="evenodd" clip-rule="evenodd" d="M91.5168 28.4461C91.5168 27.1607 90.5056 26.1149 89.2628 26.1149H87.5101V22.1399H85.0056V42.6466H87.5101V39.6395C87.5122 39.6482 87.515 39.6539 87.5164 39.6617V29.3945C87.5164 28.543 87.8178 28.4773 88.2889 28.4773C88.7599 28.4773 89.0621 28.543 89.0621 29.3945V42.6466H91.5168V28.4461Z" fill="#477BE4"/>
<path fill-rule="evenodd" clip-rule="evenodd" d="M107.911 39.674C107.911 40.5257 107.626 40.5914 107.182 40.5914C106.739 40.5914 106.454 40.5257 106.454 39.674V29.736C106.454 28.8845 106.739 28.819 107.182 28.819C107.626 28.819 107.911 28.8845 107.911 29.736V39.674ZM107.175 26.109C105.379 26.109 103.919 27.6194 103.919 29.476V39.6107C103.919 41.4673 105.379 42.9774 107.175 42.9774C108.97 42.9774 110.43 41.4673 110.43 39.6107V29.476C110.43 27.6194 108.97 26.109 107.175 26.109Z" fill="#477BE4"/>
<path fill-rule="evenodd" clip-rule="evenodd" d="M164.75 26.109H162.523V39.613C162.523 39.7615 162.513 39.8841 162.495 39.9888V40.0885H162.474C162.373 40.4927 162.111 40.5328 161.749 40.5328C161.389 40.5328 161.127 40.4927 161.025 40.0885H160.994V39.9142C160.982 39.8263 160.977 39.7274 160.977 39.613V26.109H158.489V40.3485C158.489 41.637 159.499 42.6856 160.742 42.6856H162.495V46.6157H165V26.109H164.75Z" fill="#477BE4"/>
<path fill-rule="evenodd" clip-rule="evenodd" d="M147.11 39.4696C147.11 40.0802 146.963 40.2862 146.716 40.3541C146.598 40.4174 146.449 40.4285 146.275 40.4285C145.832 40.4285 145.547 40.3628 145.547 39.5112V29.5737C145.547 28.9633 145.694 28.7576 145.94 28.6897C146.058 28.6259 146.207 28.6153 146.381 28.6153C146.825 28.6153 147.11 28.6807 147.11 29.5322V39.4696ZM149.247 22.1399H146.992V26.1149H145.239C143.996 26.1149 142.986 27.1607 142.986 28.4461V40.3158C142.986 41.6009 143.996 42.6466 145.239 42.6466H149.497V22.1399H149.247Z" fill="#477BE4"/>
<path fill-rule="evenodd" clip-rule="evenodd" d="M139.267 39.674C139.267 40.5257 138.965 40.5914 138.494 40.5914C138.024 40.5914 137.721 40.5257 137.721 39.674V29.736C137.721 28.8845 138.023 28.819 138.494 28.819C138.965 28.819 139.267 28.8845 139.267 29.736V39.674ZM138.491 26.109C136.696 26.109 135.235 27.6194 135.235 29.476V39.6107C135.235 41.4673 136.696 42.9774 138.491 42.9774C140.286 42.9774 141.746 41.4673 141.746 39.6107V29.476C141.746 27.6194 140.286 26.109 138.491 26.109Z" fill="#477BE4"/>
<path fill-rule="evenodd" clip-rule="evenodd" d="M102.319 22.5126C101.889 22.0916 101.352 21.8531 100.769 21.8229L100.508 21.8091V42.6466H102.989V24.1701C102.989 23.532 102.745 22.9277 102.319 22.5126Z" fill="#477BE4"/>
<path fill-rule="evenodd" clip-rule="evenodd" d="M135.914 22.1399H129.654V24.7299H131.657V42.6466H134.162V24.7299H136.165V22.1399H135.914Z" fill="#477BE4"/>
<path fill-rule="evenodd" clip-rule="evenodd" d="M96.7486 39.674C96.7486 40.5257 96.4636 40.5914 96.0203 40.5914C95.5761 40.5914 95.292 40.5257 95.292 39.674V29.736C95.292 28.8845 95.5761 28.819 96.0203 28.819C96.4636 28.819 96.7486 28.8845 96.7486 29.736V39.674ZM96.0127 26.109C94.2179 26.109 92.7571 27.6194 92.7571 29.476V39.6107C92.7571 41.4673 94.2179 42.9774 96.0127 42.9774C97.8074 42.9774 99.2682 41.4673 99.2682 39.6107V29.476C99.2682 27.6194 97.8074 26.109 96.0127 26.109Z" fill="#477BE4"/>
<path fill-rule="evenodd" clip-rule="evenodd" d="M115.677 39.0833H115.666V39.6465C115.666 40.5002 115.364 40.5658 114.893 40.5658C114.421 40.5658 114.12 40.5002 114.12 39.6465V29.6846C114.12 28.8311 114.421 28.7654 114.893 28.7654C115.364 28.7654 115.666 28.8311 115.666 29.6846V30.277H115.677V39.0833ZM114.926 26.109C113.131 26.109 111.67 27.6229 111.67 29.4839V40.5126C111.67 41.8008 112.681 42.8491 113.924 42.8491H115.677V44.3498H112.103V46.9465H115.928C117.171 46.9465 118.182 45.8982 118.182 44.6097V29.4839C118.182 27.6229 116.721 26.109 114.926 26.109Z" fill="#477BE4"/>
<path fill-rule="evenodd" clip-rule="evenodd" d="M80.5071 40.493C80.0416 40.493 79.7426 40.4273 79.7426 39.5756V29.638C79.7426 28.7864 80.0416 28.7206 80.5071 28.7206C80.9732 28.7206 81.2721 28.7864 81.2721 29.638V30.9389H83.7651V29.476C83.7651 27.6194 82.3049 26.109 80.5092 26.109C78.7141 26.109 77.2539 27.6194 77.2539 29.476V39.6107C77.2539 41.4673 78.7141 42.9774 80.5092 42.9774C82.3049 42.9774 83.7651 41.4673 83.7651 39.6107V38.1479H81.2721V39.5756C81.2721 40.4273 80.9732 40.493 80.5071 40.493Z" fill="#477BE4"/>
<path fill-rule="evenodd" clip-rule="evenodd" d="M154.81 39.4303C154.81 39.6593 154.787 39.83 154.744 39.9593V40.0557H154.704C154.574 40.3178 154.328 40.3483 154.006 40.3483C153.685 40.3483 153.439 40.3178 153.309 40.0557H153.242V39.8564C153.217 39.7423 153.204 39.603 153.204 39.4303V33.4573C153.204 33.2844 153.217 33.1453 153.242 33.0312V32.9288H153.269C153.384 32.5761 153.648 32.5396 154.006 32.5396C154.495 32.5396 154.81 32.6051 154.81 33.4573V39.4303ZM154.995 26.109H151.17V28.7H154.744V30.3378H152.991C151.748 30.3378 150.737 31.384 150.737 32.6695V40.315C150.737 41.6005 151.748 42.6467 152.991 42.6467H157.248V28.441C157.248 27.1551 156.237 26.109 154.995 26.109Z" fill="#477BE4"/>
<path fill-rule="evenodd" clip-rule="evenodd" d="M75.4528 26.109H73.2263V39.613C73.2263 39.7615 73.2166 39.8841 73.1993 39.9888V40.0885H73.1785C73.0763 40.4927 72.8148 40.5328 72.4531 40.5328C72.092 40.5328 71.8305 40.4927 71.7289 40.0885H71.6971V39.9142C71.6867 39.8263 71.6805 39.7274 71.6805 39.613V26.109H69.1926V40.3485C69.1926 41.637 70.2037 42.6856 71.4467 42.6856H73.1993V46.6157H75.7038V26.109H75.4528Z" fill="#477BE4"/>
<path fill-rule="evenodd" clip-rule="evenodd" d="M125.683 26.109H123.456V39.613C123.456 39.7615 123.446 39.8841 123.428 39.9888V40.0885H123.408C123.305 40.4927 123.044 40.5328 122.682 40.5328C122.322 40.5328 122.06 40.4927 121.958 40.0885H121.926V39.9142C121.916 39.8263 121.91 39.7274 121.91 39.613V26.109H119.422V40.3485C119.422 41.637 120.433 42.6856 121.676 42.6856H123.428V46.6157H125.933V26.109H125.683Z" fill="#477BE4"/>
</g>
<defs>
<filter id="filter0_d_8979_33950" x="0" y="0.5" width="186" height="59" filterUnits="userSpaceOnUse" color-interpolation-filters="sRGB">
<feFlood flood-opacity="0" result="BackgroundImageFix"/>
<feColorMatrix in="SourceAlpha" type="matrix" values="0 0 0 0 0 0 0 0 0 0 0 0 0 0 0 0 0 0 127 0" result="hardAlpha"/>
<feOffset/>
<feGaussianBlur stdDeviation="2"/>
<feComposite in2="hardAlpha" operator="out"/>
<feColorMatrix type="matrix" values="0 0 0 0 0.172549 0 0 0 0 0.176471 0 0 0 0 0.188235 0 0 0 0.24 0"/>
<feBlend mode="normal" in2="BackgroundImageFix" result="effect1_dropShadow_8979_33950"/>
<feBlend mode="normal" in="SourceGraphic" in2="effect1_dropShadow_8979_33950" result="shape"/>
</filter>
</defs>
</svg>
