<?xml version="1.0" encoding="UTF-8"?>
<svg data-bbox="0 0 1990.004 2020.838" viewBox="0 0 1990 2020.84" xmlns="http://www.w3.org/2000/svg" data-type="ugc">
    <g>
        <path d="M825.52 1169.97c2-12.78 50.83-49.53 53.03-100.85.04-.78.07-1.55.09-2.33.48-11.52.9-23.07 1.23-34.15.04-1.2.07-2.4.11-3.58.31-9.79.55-19.19.73-27.91a3914 3914 0 0 0 .53-27.55v-.31c.26-15.85.35-25.84.35-25.84s39.25 9.16 81.62 21.76c.44.13.88.26 1.32.41 38.26 11.41 78.74 25.52 94.87 38.06 6.59 5.12 9.12 9.95 5.84 14.26-5.85 7.7-10.64 24.21-11.52 44.05-1.21 27.37 8.68 50.62 19.12 67.24 1.12 1.77 2.24 3.47 3.36 5.08 9.78 14.26 19.07 22.44 19.07 22.44 5.51 48.9-279.47 70.95-269.76 9.23Z" fill="#fda88b"/>
        <path d="M1072.86 1133.22c-71.44-39.52-152.99-80.67-192.98-100.58-2.59-1.27-5.01-2.47-7.23-3.58.79-21.31 1.25-40.81 1.54-55.46l7.07-.31 83.29-3.68c53.84 16.05 112.07 37.45 100.71 52.32-5.85 7.7-10.64 24.21-11.52 44.05-1.21 27.37 8.68 50.62 19.12 67.24" fill="#37241e"/>
        <path d="M1151.62 881.11c0 28.33-8.62 189.13-166.44 192.83-154.2 3.61-179.84-90.49-191.56-191.49-2.91-25.07-2.11-50.9-2.9-77.15-.66-21.68.18-44.64 3.39-67.85 54.03 14.48 114.07 22.53 177.31 22.53s122.01-7.89 175.62-22.09c1.95 60.22 4.59 125.69 4.59 143.22Z" fill="#fda88b"/>
        <path d="M807.31 831.84c-14.58-11.99-40.07-38.04-58.53-7.8-18.46 30.25-10.22 63.54 43.73 95.5s14.8-87.71 14.8-87.71Z" fill="#fda88b"/>
        <path d="M1130.78 833.77c14.58-11.99 40.07-38.04 58.53-7.8 18.46 30.25 11.84 66.49-43.73 95.5-22.6 11.8-14.8-87.71-14.8-87.71Z" fill="#fda88b"/>
        <path fill="#37241e" d="M1148.5 741.51c0 17.342-79.286 31.4-177.09 31.4s-177.09-14.058-177.09-31.4 79.286-31.4 177.09-31.4 177.09 14.058 177.09 31.4"/>
        <path d="M974.67 933.42c-3.34 0-5.37-.64-5.58-.71-1-.33-1.54-1.41-1.2-2.41.33-1 1.41-1.53 2.41-1.2.47.15 11.76 3.56 26.62-8.97 2.86-2.41 4.07-4.86 3.71-7.49-1.04-7.48-14.44-15.07-19.52-17.37-.65-.29-1.08-.92-1.12-1.64l-2.16-41.72a1.902 1.902 0 1 1 3.8-.2l2.1 40.59c1.72.85 5.3 2.71 9.02 5.28 7.06 4.88 10.98 9.77 11.64 14.53.55 3.97-1.14 7.64-5.02 10.92-10.29 8.68-19.24 10.38-24.7 10.38Z" fill="#37241e"/>
        <path d="M979.2 1014.65c-29.61 0-51.6-24.71-52.54-25.77a1.9 1.9 0 0 1 2.86-2.5c.22.25 22.37 25.1 50.77 24.46 16.95-.38 32.84-9.66 47.23-27.6.66-.82 1.85-.95 2.67-.29s.95 1.85.29 2.67c-15.13 18.87-32 28.63-50.14 29.03-.39 0-.77.01-1.16.01Z" fill="#37241e"/>
        <path fill="#f09171" d="M914.22 920.6c0 17.287-13.924 31.3-31.1 31.3s-31.1-14.013-31.1-31.3 13.924-31.3 31.1-31.3 31.1 14.013 31.1 31.3"/>
        <path d="M1099.7 921.38c0 17.29-13.92 31.3-31.1 31.3s-31.1-14.01-31.1-31.3 13.92-31.3 31.1-31.3 31.1 14.01 31.1 31.3" fill="#f09171"/>
        <path fill="#37241e" d="M1095.49 817.99c0 4.76-11.923 8.62-26.63 8.62s-26.63-3.86-26.63-8.62 11.923-8.62 26.63-8.62 26.63 3.86 26.63 8.62"/>
        <path fill="#37241e" d="M917 818.19c0 4.76-11.923 8.62-26.63 8.62s-26.63-3.86-26.63-8.62 11.923-8.62 26.63-8.62 26.63 3.86 26.63 8.62"/>
        <path d="M889.79 868.58c-12.57 0-22.8-7.33-22.8-16.35a1.9 1.9 0 1 1 3.8 0c0 6.92 8.52 12.54 18.99 12.54s18.99-5.63 18.99-12.54a1.9 1.9 0 1 1 3.8 0c0 9.02-10.23 16.35-22.8 16.35Z" fill="#37241e"/>
        <path d="M858.46 868.58a1.903 1.903 0 0 1-.89-3.59l13.4-7.04a1.903 1.903 0 1 1 1.77 3.37l-13.4 7.04c-.28.15-.58.22-.88.22" fill="#37241e"/>
        <path d="M871.59 879.71c-.38 0-.75-.11-1.09-.34-.86-.6-1.07-1.79-.47-2.65l8.03-11.53c.6-.86 1.79-1.07 2.65-.47s1.07 1.79.47 2.65l-8.03 11.53c-.37.53-.96.82-1.56.82Z" fill="#37241e"/>
        <path d="M922.27 868.58c-.3 0-.6-.07-.88-.22l-13.4-7.04a1.903 1.903 0 1 1 1.77-3.37l13.4 7.04a1.903 1.903 0 0 1-.89 3.59" fill="#37241e"/>
        <path d="M909.14 879.71c-.6 0-1.19-.28-1.56-.82l-8.03-11.53c-.6-.86-.39-2.05.47-2.65s2.05-.39 2.65.47l8.03 11.53a1.897 1.897 0 0 1-1.56 2.99Z" fill="#37241e"/>
        <path d="M889.29 884.35h-.07a1.9 1.9 0 0 1-1.83-1.97l.49-13.4c.04-1.05.94-1.87 1.97-1.83a1.9 1.9 0 0 1 1.83 1.97l-.49 13.4a1.9 1.9 0 0 1-1.9 1.83" fill="#37241e"/>
        <path d="M1067.58 866.66c-12.57 0-22.8-7.33-22.8-16.35a1.9 1.9 0 1 1 3.8 0c0 6.92 8.52 12.54 18.99 12.54s18.99-5.63 18.99-12.54a1.9 1.9 0 1 1 3.8 0c0 9.02-10.23 16.35-22.8 16.35Z" fill="#37241e"/>
        <path d="M1036.24 866.66a1.903 1.903 0 0 1-.89-3.59l13.4-7.04a1.903 1.903 0 1 1 1.77 3.37l-13.4 7.04c-.28.15-.58.22-.88.22" fill="#37241e"/>
        <path d="M1049.37 877.79c-.38 0-.75-.11-1.09-.34-.86-.6-1.07-1.79-.47-2.65l8.03-11.53c.6-.86 1.79-1.07 2.65-.47s1.07 1.79.47 2.65l-8.03 11.53c-.37.53-.96.82-1.56.82Z" fill="#37241e"/>
        <path d="M1100.06 866.66c-.3 0-.6-.07-.88-.22l-13.4-7.04a1.903 1.903 0 1 1 1.77-3.37l13.4 7.04a1.903 1.903 0 0 1-.89 3.59" fill="#37241e"/>
        <path d="M1086.93 877.79c-.6 0-1.19-.28-1.56-.82l-8.03-11.53c-.6-.86-.39-2.05.47-2.65s2.05-.39 2.65.47l8.03 11.53a1.897 1.897 0 0 1-1.56 2.99Z" fill="#37241e"/>
        <path d="M1067.08 882.43h-.07a1.9 1.9 0 0 1-1.83-1.97l.49-13.4a1.9 1.9 0 1 1 3.8.14l-.49 13.4a1.9 1.9 0 0 1-1.9 1.83" fill="#37241e"/>
        <path d="M1441.67 1903.14c-1.65 16.94-4.36 30.78-8.26 40.71-13.98 35.51-76.35 21.22-141.59-5.8h-.04c-24.7 9.03-55.43 16.61-89.84 22.96-103.97 19.15-241.43 27.01-347.31 29.55-45.52 1.09-85.18 1.19-113.88.78-48.92 47-100.45 47.27-140.98-69.47-3.93-11.35-7.77-23.78-11.5-37.4-8.65-31.72-16.69-69.8-23.93-115.01-5.21-32.52-9.65-63.12-13.37-91.87-1.91-14.6-3.62-28.71-5.15-42.37-9.97-88.68-12.64-158.23-10.44-212.74.65-15.89 1.69-30.49 3.11-43.93 8.85-84.7 31.77-122.61 53.64-138.96.51-.82 1.04-1.58 1.53-2.25 33.17-45.16 157.51-80.59 216.44-95.23 19.11-4.75 31.34-7.31 31.34-7.31s3.15-.1 8.93-.29h.31c38.83 35.51 128.39 94.66 227.77 4.32 1.16.1 2.32.18 3.48.27 19.35 1.5 38.5 3.38 56.88 5.71 42.43 5.41 80.65 13.27 107.32 24.66 15.53 6.61 30.12 16.92 43.83 30.06-.2.23-.43.47-.65.7 23.1 16.12 54.15 51.44 77.92 128.76 2.85 9.3 5.62 19.23 8.24 29.8.18.74.37 1.43.53 2.17 2.79 11.24 5.56 23.18 8.34 35.72.88 3.87 1.73 7.82 2.6 11.82 10.66 49.34 21.18 106.74 30.2 165.5 3.11 20.25 6.04 40.67 8.75 60.97v.02c10.48 78.68 17.48 155.71 17.79 215.16.12 19.82-.51 37.68-2.01 53Z" fill="#e35d59"/>
        <path d="M1138.81 1144.81c-24.38 32.56-83.07 93.08-180.11 88.57-97.9-4.55-146.5-58.81-159.5-88.28 19.11-4.75 42.25-10.31 42.25-10.31s3.15-.1 8.93-.29h.31c38.83 35.51 128.39 94.66 227.77 4.32 1.16.1 2.32.18 3.48.27 19.35 1.5 38.5 3.38 56.88 5.71Z" fill="#fff6f2"/>
        <path d="M1425.9 1634.95c-37.59-41.31-81.24-65.35-125.52-68.59-50.06-3.67-100.08 19.01-144.62 65.54-36.55 38.19-85.18 62.4-140.66 70.02-13.06 1.78-26.48 2.68-40.23 2.68-55.7 0-116.95-14.66-182.7-43.83-65.51-29.02-130.22-31.76-192.34-8.15-19.92 7.58-36.43 16.79-48.86 24.96-1.91-14.6-3.62-28.71-5.15-42.37 11.15-6.33 24.07-12.7 38.62-18.33 49.8-19.31 128.98-33.53 223.32 8.29 183.74 81.45 279.46 22.26 320.16-20.28 52.77-55.13 113.41-81.86 175.25-77.35 39.76 2.91 78.61 18.92 113.98 46.43 3.11 20.25 6.04 40.67 8.75 60.97Z" fill="#fff6f2"/>
        <path d="M1441.67 1903.14c-38.38-43.75-83.39-69.24-129.08-72.58-50.06-3.69-100.08 19.01-144.62 65.54-36.55 38.19-85.18 62.4-140.66 70.02-13.06 1.78-26.47 2.68-40.23 2.68-55.7 0-116.95-14.66-182.7-43.83-65.51-29.02-130.22-31.76-192.34-8.15-4.25 1.62-8.34 3.32-12.27 5.06-3.93-11.35-7.77-23.78-11.5-37.4 2.73-1.15 5.51-2.29 8.38-3.4 49.8-19.31 128.98-33.53 223.32 8.29 183.74 81.45 279.46 22.26 320.16-20.28 52.77-55.13 113.39-81.88 175.25-77.35 45.22 3.3 89.23 23.57 128.3 58.39.12 19.82-.51 37.68-2.01 53Z" fill="#fff6f2"/>
        <path d="M796.67 1970.02c-27.54-24.8-32.66-61.91-37.61-97.8-2.1-15.19-4.07-29.54-7.71-42.35-5.13-18.08-.18-46.16 5.05-75.88 7.45-42.26 15.15-85.96-4.51-106.07-18.19-18.61-24.58-41.86-26.73-58.1-2.33-17.55-.4-30.54-.32-31.09l3.74.57c-.08.51-7.42 51.78 26.01 85.97 21.02 21.5 13.15 66.17 5.53 109.37-5.16 29.29-10.04 56.95-5.14 74.19 3.71 13.07 5.71 27.55 7.82 42.87 4.86 35.21 9.88 71.63 36.39 95.5l-2.53 2.81Z" fill="#d9b5a9"/>
        <path d="M1301.01 1969.63c-.11-.18-11.42-17.9-21.3-45.18-9.12-25.19-18.88-63.95-13.58-105.59 4.8-37.68 2.99-71.53-5.55-103.46-7.36-27.53-19.73-54.12-38.93-83.68-10.02-15.43-21.34-41.75-18.36-79.51 1.78-22.54 7.75-38.27 8.01-38.93l3.53 1.36c-.06.16-6.05 15.97-7.77 37.99-1.58 20.23.21 50.02 17.77 77.04 19.43 29.9 31.95 56.84 39.41 84.77 8.66 32.42 10.51 66.74 5.65 104.92-5.2 40.85 4.39 78.95 13.35 103.72 9.73 26.9 20.85 44.35 20.96 44.52l-3.18 2.05Z" fill="#d9b5a9"/>
        <path d="M1081.98 646.03c-3.25-3.64-4.55-8.35-3.98-12.84l-31.58 28.49 29.3 32.78c-4.92-1.15-10.29.03-14.32 3.67-6.58 5.93-7.1 16.12-1.18 22.76 5.93 6.63 16.07 7.2 22.65 1.27 4.03-3.64 5.78-8.87 5.17-13.91l29.3 32.78 31.58-28.49c-4.51.09-9.03-1.72-12.28-5.36-5.93-6.63-5.4-16.82 1.18-22.76 6.58-5.93 16.72-5.37 22.65 1.27 3.25 3.64 4.55 8.35 3.98 12.84l31.58-28.49-29.3-32.78c4.92 1.15 10.29-.03 14.32-3.67 6.58-5.93 7.1-16.12 1.18-22.76-5.93-6.63-16.07-7.2-22.65-1.27-4.03 3.64-5.78 8.87-5.17 13.91l-29.3-32.78-31.58 28.49c4.51-.09 9.03 1.72 12.28 5.36 5.93 6.63 5.4 16.82-1.18 22.76-6.58 5.93-16.72 5.37-22.65-1.27" fill="#87bedf"/>
        <path d="M914.2 597.86c4.39-2.39 9.38-2.55 13.71-.89L907 558.31l-39.51 21.52c2.3-4.67 2.39-10.35-.28-15.29-4.36-8.05-14.37-11.05-22.36-6.7s-10.95 14.41-6.59 22.47c2.67 4.94 7.47 7.96 12.62 8.57l-39.51 21.52 20.91 38.66c.97-4.55 3.83-8.66 8.22-11.05 8-4.35 18.01-1.36 22.36 6.7 4.36 8.05 1.4 18.11-6.59 22.47-4.39 2.39-9.38 2.55-13.71.89l20.91 38.66 39.51-21.52c-2.3 4.67-2.39 10.35.28 15.29 4.36 8.05 14.37 11.05 22.36 6.7 8-4.35 10.95-14.41 6.59-22.47-2.67-4.94-7.47-7.96-12.62-8.57l39.51-21.52-20.91-38.66c-.97 4.55-3.83 8.66-8.22 11.05-8 4.35-18.01 1.36-22.36-6.7-4.36-8.05-1.4-18.11 6.59-22.47" fill="#e35d59"/>
        <path d="M1062.23 475c5.04 1.2 9.01 4.53 11.23 8.82l10.4-44.35-45.36-10.78c4.99-2.01 8.97-6.34 10.29-12 2.17-9.24-3.52-18.5-12.7-20.68s-18.38 3.54-20.55 12.78a17.23 17.23 0 0 0 3.87 15.37l-45.36-10.78-10.4 44.35c3.88-2.84 8.92-4.03 13.96-2.84 9.18 2.18 14.87 11.44 12.7 20.68s-11.37 14.96-20.55 12.78c-5.04-1.2-9.01-4.53-11.23-8.82l-10.4 44.35 45.36 10.78c-4.99 2.01-8.97 6.34-10.29 12-2.17 9.24 3.52 18.5 12.7 20.68s18.38-3.54 20.55-12.78a17.23 17.23 0 0 0-3.87-15.37l45.36 10.78 10.4-44.36c-3.88 2.84-8.92 4.03-13.96 2.84-9.18-2.18-14.87-11.44-12.7-20.68s11.37-14.96 20.55-12.78Z" fill="#f6b95e"/>
        <path d="M1148.26 283.17c12.51 21.04 5.54 48.2-15.57 60.66-21.1 12.47-48.35 5.52-60.86-15.51-12.51-21.04-5.54-48.2 15.56-60.66s48.35-5.52 60.86 15.51Z" stroke="#f1a3a6" fill="none" stroke-miterlimit="10" stroke-width="20"/>
        <path d="M1854.45 119.2c12.51 21.04 5.54 48.2-15.56 60.66-21.1 12.47-48.35 5.52-60.86-15.51-12.51-21.04-5.54-48.2 15.56-60.66 21.1-12.47 48.35-5.52 60.86 15.51Z" fill="none" stroke-miterlimit="10" stroke-width="20" stroke="#f6b95e"/>
        <path d="M1924.56 910.69c-22 10.82-48.63 1.82-59.49-20.11s-1.83-48.48 20.17-59.3 48.63-1.82 59.49 20.11 1.83 48.48-20.17 59.3Z" fill="none" stroke-miterlimit="10" stroke-width="20" stroke="#e35d59"/>
        <path d="M1494.35 597.08c-22 10.82-48.63 1.82-59.49-20.11s-1.83-48.48 20.17-59.3 48.63-1.82 59.49 20.11 1.83 48.48-20.17 59.3Z" fill="none" stroke-miterlimit="10" stroke-width="20" stroke="#5fb09b"/>
        <path d="M1018.89 115.42c-22 10.82-48.63 1.82-59.49-20.11s-1.83-48.48 20.17-59.3 48.63-1.82 59.49 20.11 1.83 48.48-20.17 59.3Z" fill="none" stroke-miterlimit="10" stroke-width="20" stroke="#5fb09b"/>
        <path d="M426.87 908.92c-22 10.82-48.63 1.82-59.49-20.11s-1.83-48.48 20.17-59.3 48.63-1.82 59.49 20.11 1.83 48.48-20.17 59.3Z" fill="none" stroke-miterlimit="10" stroke-width="20" stroke="#e35d59"/>
        <path d="M604.66 624.27c-22 10.82-48.63 1.82-59.49-20.11s-1.83-48.48 20.17-59.3 48.63-1.82 59.49 20.11 1.83 48.48-20.17 59.3Z" fill="none" stroke-miterlimit="10" stroke-width="20" stroke="#87bedf"/>
        <path d="M177.39 152.2c-22 10.82-48.66 1.78-59.54-20.21-10.89-21.98-1.88-48.58 20.12-59.4s48.66-1.77 59.54 20.21c10.89 21.98 1.88 48.58-20.12 59.4Z" fill="none" stroke-miterlimit="10" stroke-width="20" stroke="#e35d59"/>
        <path d="m1608.86 926-13.57-13.34c17.96-17.46 18.32-46.22.8-64.12-8.43-8.62-19.71-13.44-31.75-13.59h-.57c-11.83 0-22.99 4.53-31.49 12.79l-13.57-13.34c12.14-11.8 28.11-18.27 45.05-18.27h.82c17.26.21 33.39 7.1 45.42 19.4 24.71 25.26 24.2 65.84-1.14 90.48Z" fill="#87bedf"/>
        <path d="M1547.75 112.27c-1.45 0-2.9-.05-4.36-.14-17.24-1.14-32.99-8.9-44.34-21.85-23.28-26.56-20.53-67.06 6.13-90.28l12.8 14.05c-18.89 16.44-20.82 45.15-4.31 63.98 7.96 9.08 18.98 14.52 31.02 15.32 12 .79 23.59-3.12 32.65-11.02l12.8 14.05c-11.86 10.32-26.77 15.88-42.39 15.88Z" fill="#e35d59"/>
        <path d="m277.23 407.48-9.27 16.49c-22.19-11.93-50.52-4.16-63.16 17.32-6.08 10.34-7.64 22.28-4.39 33.62 3.24 11.34 10.91 20.73 21.59 26.47l-9.27 16.49c-15.24-8.19-26.19-21.64-30.85-37.88-4.66-16.25-2.44-33.32 6.24-48.07 17.82-30.3 57.8-41.26 89.11-24.43Z" fill="#f78c5e"/>
        <path d="M522.14 140.32c-29.31-19.81-37.01-59.68-17.15-88.87 9.7-14.26 24.43-23.88 41.45-27.07 16.88-3.16 34 .38 48.2 9.98L583.7 49.84c-9.92-6.71-21.86-9.19-33.63-6.98-11.91 2.23-22.23 8.99-29.05 19.01-14.09 20.7-8.67 48.95 12.07 62.97l-10.94 15.48Z" fill="#f6b95e"/>
        <path d="M629.32 288.95c20.43-28.7 61.22-36.27 90.92-16.87 14.44 9.43 24.16 23.75 27.36 40.31 3.21 16.59-.51 33.43-10.46 47.42l-15.79-10.75c6.98-9.8 9.59-21.58 7.35-33.17-2.23-11.55-9.03-21.55-19.14-28.15-21.04-13.74-49.95-8.37-64.44 11.98l-15.79-10.75Z" fill="#f1a3a6"/>
        <path d="M49.18 914.38c-1.68 0-3.37-.06-5.07-.19-17.23-1.32-32.9-9.26-44.11-22.33l14.75-12.09c7.86 9.17 18.82 14.73 30.86 15.66 11.98.92 23.61-2.86 32.76-10.65 19.07-16.24 21.32-44.91 5.02-63.93l14.75-12.09c22.99 26.82 19.79 67.28-7.13 90.21-11.79 10.04-26.48 15.42-41.84 15.42Z" fill="#5fb09b"/>
        <path d="M1689.78 333.74a61 61 0 0 1 2.49 4.32c7.89 15.04 9.21 32.23 3.71 48.43l-18.26-5.93c3.86-11.36 2.95-23.4-2.57-33.9-5.49-10.45-14.89-18.15-26.47-21.67-24.14-7.34-50.29 5.84-58.29 29.39l-18.26-5.93c11.28-33.21 48.19-51.79 82.27-41.42 14.92 4.54 27.32 13.94 35.39 26.72Z" fill="#f78c5e"/>
        <path d="M1860.9 518.03c6.91-34.31 41.14-57.28 76.31-51.19 17.1 2.96 31.89 12.24 41.63 26.15 9.76 13.93 13.29 30.81 9.92 47.53l-18.88-3.63c2.36-11.72-.1-23.53-6.91-33.26-6.8-9.7-17.13-16.18-29.11-18.25-24.92-4.31-49.17 11.97-54.07 36.3l-18.88-3.63Z" fill="#f1a3a6"/>
    </g>
</svg>
